<?xml version="1.0" encoding="utf-8"?>
<!-- Generator: Adobe Illustrator 27.3.1, SVG Export Plug-In . SVG Version: 6.00 Build 0)  -->
<svg version="1.1" id="Layer_1" height="180px" xmlns="http://www.w3.org/2000/svg" xmlns:xlink="http://www.w3.org/1999/xlink" x="0px" y="0px"
	 viewBox="0 0 807.5 140" style="enable-background:new 0 0 807.5 140;" xml:space="preserve">
<style type="text/css">
	.st0{fill:#F2F6FC;}
	
		.st1{opacity:0.9884;fill:none;stroke:#598BDE;stroke-width:0.5;stroke-linecap:round;stroke-linejoin:round;stroke-miterlimit:10;enable-background:new    ;}
	
		.st2{opacity:0.9884;fill:none;stroke:#598BDE;stroke-width:0.5;stroke-linecap:round;stroke-linejoin:round;enable-background:new    ;}
	.st3{fill:#FFFEFF;}
	.st4{fill:#002460;}
	.st5{fill:none;stroke:#002460;stroke-width:0.5;stroke-linecap:round;stroke-linejoin:round;}
	.st6{fill:none;stroke:#FFFEFF;stroke-width:0.5;stroke-linejoin:round;}
	.st7{fill:none;stroke:#002460;stroke-width:0.5;stroke-miterlimit:10;}
	.st8{fill:none;stroke:#FFFEFF;stroke-width:0.5;stroke-linecap:round;stroke-linejoin:round;}
	.st9{fill:#49C94F;}
	.st10{fill:#002460;stroke:#002460;stroke-width:0.5;stroke-linecap:round;stroke-linejoin:round;}
	.st11{fill:#FFFEFF;stroke:#FFFEFF;stroke-width:0.5;stroke-linecap:round;stroke-linejoin:round;}
	.st12{fill:#002460;stroke:#FFFEFF;stroke-width:0.5;stroke-linecap:round;stroke-linejoin:round;}
	.st13{fill:none;stroke:#002460;stroke-width:0.5;stroke-linejoin:round;stroke-miterlimit:10;}
	.st14{fill:#002460;stroke:#002460;stroke-width:0.5;stroke-linejoin:round;stroke-miterlimit:10;}
	.st15{fill:#FFFEFF;stroke:#002460;stroke-width:0.5;stroke-linejoin:round;stroke-miterlimit:10;}
	.st16{fill:none;stroke:#002460;stroke-width:0.5;stroke-linecap:round;stroke-linejoin:round;stroke-miterlimit:10;}
	.st17{fill:none;stroke:#FFFEFF;stroke-width:0.5;stroke-linecap:round;stroke-miterlimit:10;}
	.st18{fill:none;stroke:#FFFEFF;stroke-width:0.5;stroke-linecap:round;stroke-linejoin:round;stroke-miterlimit:10;}
	.st19{fill:#FFFEFF;stroke:#002460;stroke-width:0.5;stroke-linecap:round;stroke-linejoin:round;stroke-miterlimit:10;}
	.st20{fill:#D9E4F7;}
	.st21{fill:#FFFEFF;stroke:#002460;stroke-width:0.5;stroke-linecap:round;stroke-linejoin:round;}
	.st22{fill:#002460;stroke:#002460;stroke-width:0.5;stroke-linecap:round;stroke-linejoin:round;stroke-miterlimit:10;}
	
		.st23{fill:none;stroke:#2F6DD5;stroke-width:0.5;stroke-linecap:round;stroke-linejoin:round;stroke-miterlimit:10;stroke-dasharray:3,3;}
	.st24{fill:#2F6DD5;stroke:#2F6DD5;stroke-width:0.5;stroke-linecap:round;stroke-linejoin:round;stroke-miterlimit:10;}
	.st25{fill:#FFFEFF;stroke:#2F6DD5;stroke-width:0.5;stroke-linecap:round;stroke-linejoin:round;stroke-miterlimit:10;}
	.st26{fill:#FF8800;}
	.st27{fill:#FFFEFF;stroke:#002460;stroke-width:0.5;stroke-miterlimit:10;}
	.st28{fill:#FFFEFF;stroke:#002460;stroke-width:0.5;stroke-linejoin:round;}
	
		.st29{opacity:0.9884;fill:#FFFEFF;stroke:#002460;stroke-width:0.5;stroke-linecap:round;stroke-linejoin:round;enable-background:new    ;}
	
		.st30{opacity:0.9884;fill:none;stroke:#002460;stroke-width:0.5;stroke-linecap:round;stroke-linejoin:round;enable-background:new    ;}
	
		.st31{opacity:0.9884;fill:#002460;stroke:#002460;stroke-width:0.5;stroke-linecap:round;stroke-linejoin:round;enable-background:new    ;}
	.st32{fill:#FF3B29;}
	.st33{fill:none;stroke:#FFBB00;stroke-linecap:round;stroke-linejoin:round;stroke-miterlimit:10;}
	.st34{fill:none;stroke:#FFBB00;stroke-linecap:square;stroke-linejoin:bevel;stroke-miterlimit:10;}
	.st35{fill:#FFBB00;}
</style>
<g>
	<g>
		<path class="st0" d="M97.2,139.6c34.3-25,85.2-47.2,103.2-15.2c4.8,8.5,53.7-38.1,114.7-41.5c23.4-1.3,29.5,18.5,44.7,23
			c56.6,9.6,92.8-56.1,149.2-39.8c13.8,3.4,45.7,24.5,60,24.8c22.1,0.5,43.3-10.8,62.3-21.6c53.3-30.4,120.2-26.9,175.9-0.4v70.8
			L97.2,139.6z"/>
		<path class="st1" d="M364.3,28H469c0,0,5.6-8.4-35.2-10.8c-13.8,2.1-4.4-9.3-17.6-4.7c-5.3,1.8-8.9,9-18.7,6.6
			C386.5,16.3,370.8,22.2,364.3,28z"/>
		<path class="st1" d="M0.2,119.5h100.5c0,0,4.8-13-14.3-7.5c-7.6,1.6,1.8-18.1-21.3-8c-6.1,2.7-8.8,2.7-10.5,1.6
			c-2.8-1.8-24.5-8.5-32.6,1.4C14.1,116.9,6.2,113.6,0.2,119.5z"/>
		<path class="st1" d="M587.3,37c19.4,0,95,0.2,95,0.2s-10.8-8.3-24.7-6s3-8.3-20.7-3.3s-13.3-3.7-29.9,2.5
			C603.8,31.7,588.5,31.8,587.3,37z"/>
		<path class="st1" d="M563.2,28.1h30c0,0-3.4-6.6-7.8-4.8c-4.4,1.9,1.4-8-10.8-1.3C567,26.2,563.5,23.9,563.2,28.1z"/>
		<path class="st2" d="M807.2,13.2c-8.5,1.8-15.6,5.6-21.9,11.5c-10.7,9.9-13.9,4.6-16.9,9.7l38.6,0.2"/>
		<path class="st1" d="M200.7,40.9c7.2,0,46.4,0.1,46.4,0.1s0.3-7.8-4.8-5.9c-5.1,1.9-3.2-5.9-12-1.7s-6.1,0.2-13.6,3.1
			C210.4,38.8,211.2,34.8,200.7,40.9z"/>
		<path class="st3" d="M476.8,82.3c0,0.2-0.2,32.1-0.4,57.3l59.7,0.1c-0.2-23.5-0.4-50.6,0.2-47.4c0.1,0.7,18,9.3,16.8,6.5
			c-11.8-27.2-3.6-46.5-41.8-49c-0.5,4.2-13.2,4.6-13.3,1.6c-9.4,5.9-14.3,10.6-18,16.4C475.2,75.4,476.8,82.3,476.8,82.3z"/>
		<path class="st3" d="M477.8,43.8l-0.4,19.5l2.4-0.2c0,0,5.1-12.7,8.1-17.6c1-1.7-9.7-4.7-9.7-4.7L477.8,43.8z"/>
		<path class="st4" d="M562.8,48.1l-1.8,6.7l2.5,9.3l10.4-2l-0.3-2.8l-4.8-8.7L562.8,48.1z"/>
		<path class="st4" d="M481.8,44.7l0.4,0.2l4.6-0.5l2.2-0.1c0,0,0.7-1.9,0.2-2c-1-0.1-2.7,1.5-2.7,1.5l-5-5.1l-1.9,0.3L481.8,44.7z"
			/>
		<path class="st3" d="M536,139.6c-0.2-23.5-0.4-50.5,0.2-47.4c0.1,0.7,18,9.3,16.8,6.5c-11.8-27.2-3.6-46.5-41.8-49
			c-0.5,4.2-13.2,4.6-13.3,1.6c-9.4,5.9-14.9,10.3-18,16.4"/>
		<path class="st5" d="M536,139.6c-0.2-23.5-0.4-50.5,0.2-47.4c0.1,0.7,18,9.3,16.8,6.5c-11.8-27.2-3.6-46.5-41.8-49
			c-0.5,4.2-13.2,4.6-13.3,1.6c-9.4,5.9-14.9,10.3-18,16.4"/>
		<path class="st4" d="M481.8,45c6.5,2.3,10.1-0.7,10.5-4.3c0.3-1.9,4-2.7,1.8-4.9"/>
		<path class="st6" d="M481.8,45c6.5,2.3,10.1-0.7,10.5-4.3c0.3-1.9,4-2.7,1.8-4.9"/>
		<path class="st3" d="M478.2,40.4c-5.6,12.8-18.4,27.7-19.9,48.3c-0.6,8.3,0.7,16.7,4.5,24.3c0.4,0.9,1,1.8,2.1,2.1
			c0.9,0.3,1.9-0.1,2.8-0.6c3.7-1.9,6.8-4.6,9-7.8"/>
		<path class="st7" d="M478.2,40.4c-5.6,12.8-18.4,27.7-19.9,48.3c-0.6,8.3,0.7,16.7,4.5,24.3c0.4,0.9,1,1.8,2.1,2.1
			c0.9,0.3,1.9-0.1,2.8-0.6c3.7-1.9,6.8-4.6,9-7.8"/>
		<path class="st4" d="M484.2,29.7c5.8-9.8,4.8-1,1.5,3.9v-0.1"/>
		<path class="st8" d="M484.2,29.7c5.8-9.8,4.8-1,1.5,3.9v-0.1"/>
		<path class="st9" d="M480.8,36.6L491.2,26c0.4-0.4,1-0.4,1.4,0l4.9,4.9c0.4,0.4,0.4,1,0,1.4L487,42.9c-0.4,0.4-1,0.4-1.4,0
			l-4.9-4.9C480.3,37.6,480.3,37,480.8,36.6z"/>
		<path class="st10" d="M498,51.2c-0.2-0.7-0.4-2.5-0.4-3.2c-0.2-4-0.7-11.9-0.8-12.4c-1.9-0.2-5.3-1.1-4.4-4.4c0.9-3,3.1-1.3,4.5,0
			c0,0,0.2-2.6,0.1-3.5c-0.6-14.3,10.1-14.4,14-12c3.3,2,4,5.3,4.9,8c7.3,23.3-5.1,24.5-4.6,26.2C512,52.5,499.8,57,498,51.2z"/>
		<path class="st8" d="M514.2,28.5c0,0,2.8,4.3,1.4,7c-0.9,1.7-4.6,1.3-4.6,1.3"/>
		<path class="st3" d="M476.8,82.3c0,0.2-0.2,32.1-0.4,57.3L476.8,82.3z"/>
		<path class="st5" d="M476.8,82.3c0,0.2-0.2,32.1-0.4,57.3"/>
		<path class="st3" d="M506.8,49.9c1.7,0.2,3.4,0.2,5.1-0.7C510.8,50.7,505.5,52.9,506.8,49.9z"/>
		<path class="st11" d="M511,36.8c-0.2-0.1,1.1,2.8,1.8,2.5c0.6-0.2,0-2.5,0-2.5H511z"/>
		<path class="st12" d="M481.8,32.1c0.2-1.2,1.6-2.1,2.4-2.1c1.1,0.1,1.6,1.5,1.1,2C484,33.2,482,34.9,481.8,32.1z"/>
		<path class="st12" d="M480,34.2c0.2-0.5,0.5-1.1,0.9-1.5s1-0.7,1.6-0.6c0.6,0.1,1.1,0.6,1,1.2c0,0.4-0.4,0.8-0.7,1.1
			c-0.3,0.3-0.7,0.7-1.1,0.9C481.8,35.3,481.8,35.2,480,34.2z"/>
		<path class="st3" d="M477.5,70.6l2.4-7.8c0,0-2.4-0.2-2.6,0C477.2,62.9,477.5,70.6,477.5,70.6z"/>
		<path class="st4" d="M481.8,45c-2.9-1.1-3.4-3.6-3.7-4.6c-0.2-0.7-0.4-1.5-0.4-2.2c0-1,0.3-2.1,1-2.9c0.5-0.6,1.2-1.1,2-0.9
			c0.9,0.3,1.2,1.4,1.2,2.3c0,0.7-0.1,1.6-0.8,2c-0.4,0.2-1,0.1-1.3-0.2c-0.4-0.3-0.5-0.8-0.5-1.3"/>
		<path class="st8" d="M481.8,45c-2.9-1.1-3.4-3.6-3.7-4.6c-0.2-0.7-0.4-1.5-0.4-2.2c0-1,0.3-2.1,1-2.9c0.5-0.6,1.2-1.1,2-0.9
			c0.9,0.3,1.2,1.4,1.2,2.3c0,0.7-0.1,1.6-0.8,2c-0.4,0.2-1,0.1-1.3-0.2c-0.4-0.3-0.5-0.8-0.5-1.3"/>
		<path class="st7" d="M483.5,62.5c-3.1,3.8-5.2,8.2-7.2,12.7"/>
		<path class="st7" d="M487.8,45.6c-8.5,15.5-13.4,32.4-14.7,50c0-0.1,0-0.2,0-0.2"/>
		<path class="st7" d="M477,42.9c-2.1,4.8,5.3,9.2,9,6.2"/>
		<path class="st13" d="M476.5,132c6.9-2.2-0.7-38.1,3.8-44.8c5.2-7.6,40.7-7.3,46.5-0.5c4.9,5.8-2,30.5,1.2,45.3
			c1.7,6,6.9,3.8,7.8-1.2"/>
		<path class="st14" d="M487.8,93.1l28.8-0.3c0,17.1-3,28.3-14,28.3C491,121.1,489.2,114,487.8,93.1z"/>
		<path class="st15" d="M532,54.5c-3.5,6.6-5.5,17.9-6.4,28c-0.2,2.7-0.4,10-3.9,9.2c-6.9-1.6,1.2-33.9,4.7-39.5
			C530,52,532.2,54.4,532,54.5z"/>
		<path class="st15" d="M479.8,78.9c-0.1,3.8-0.2,13.1,2.5,13.4c7.4,0.7-1.3-20.6,10.1-37.4C482,59.6,480.2,70.2,479.8,78.9z"/>
		<path class="st16" d="M496,52.4c-0.9,7.4,21.8,4.3,17.9-2.4"/>
		<path class="st4" d="M497,25.1c0,0,11.6-3.4,17.4-5.1c4.9-1.4,12.1-2.7,12.6-1.7c0,0,0.6,0.9-1,1.4c-5.6,1.7-7.4,2.2-10.4,3
			c-0.8-0.9-6.9-0.9-9-0.4"/>
		<path class="st16" d="M497,25.1c0,0,11.6-3.4,17.4-5.1c4.9-1.4,12.1-2.7,12.6-1.7c0,0,0.6,0.9-1,1.4c-5.6,1.7-7.4,2.2-10.4,3
			c-0.8-0.9-6.9-0.9-9-0.4"/>
		<path class="st4" d="M567.5,49.9c-0.3-4.3,4.5-4.5,5-2.6c0.5,2.3-5.4-0.5-0.7,5.6c0.8,1,3,5.6,2.1,9.2"/>
		<path class="st17" d="M567.5,49.9c-0.3-4.3,4.5-4.5,5-2.6c0.5,2.3-5.4-0.5-0.7,5.6c0.8,1,3,5.6,2.1,9.2"/>
		<path class="st4" d="M564.8,48.6c-0.2-4.9,5.6-4.4,5.5-2.9c-0.3,2.4-3.9-1-2.1,6"/>
		<path class="st17" d="M564.8,48.6c-0.2-4.9,5.6-4.4,5.5-2.9c-0.3,2.4-3.9-1-2.1,6"/>
		<path class="st4" d="M562.2,48.2c-0.2-4.9,1.1-9.7,2.7-8.8c2,1.2-1.4,4.4,0.9,12.4"/>
		<path class="st17" d="M562.2,48.2c-0.2-4.9,1.1-9.7,2.7-8.8c2,1.2-1.4,4.4,0.9,12.4"/>
		<path class="st4" d="M561,54.9c-1.9-3.1-0.8-15.9,1.8-14.5c2,1.2-1.4,4.4,0.9,12.4"/>
		<path class="st18" d="M561,54.9c-1.9-3.1-0.8-15.9,1.8-14.5c2,1.2-1.4,4.4,0.9,12.4"/>
		<path class="st4" d="M564,63.9c-4-0.4-3-3.3-5.1-7.1c-0.7-1.3-3.8-2.5-3.2-3.7c1.6-2.8,6.4,2.5,6.8,4.4"/>
		<path class="st18" d="M564,63.9c-4-0.4-3-3.3-5.1-7.1c-0.7-1.3-3.8-2.5-3.2-3.7c1.6-2.8,6.4,2.5,6.8,4.4"/>
		<path class="st3" d="M547.8,83.5c6.3,16.1,20.5,0.1,14.4-19.3l12.6-2.1c8.9,60.9-42.2,52.6-42.2,20.5"/>
		<path class="st16" d="M547.8,83.5c6.3,16.1,20.5,0.1,14.4-19.3l12.6-2.1c8.9,60.9-42.2,52.6-42.2,20.5"/>
		<path class="st3" d="M563.2,67.9c3.1,0,7.9-0.7,12.2-1.7L563.2,67.9z"/>
		<path class="st16" d="M563.2,67.9c3.1,0,7.9-0.7,12.2-1.7"/>
		<path class="st3" d="M559,87.9c-1.7,2.2-5.3,2.6-7.1,8L559,87.9z"/>
		<path class="st16" d="M559,87.9c-1.7,2.2-5.3,2.6-7.1,8"/>
		<path class="st3" d="M556,90c-3.1,0-6.2,1.5-8.3,4L556,90z"/>
		<path class="st16" d="M556,90c-3.1,0-6.2,1.5-8.3,4"/>
		<path class="st19" d="M497,25.1l17.7-5.1c0,0-3.5-8-11.2-5.8C496.2,16.3,497,25.1,497,25.1z"/>
		<path class="st20" d="M528.2,139.6c-0.2-13.1,4.1-25,19.7-23.8c-4.1-7.1,3.7-15.9,11.9-13.3c4.9,1.4,10.6,3.9,14.8,1.2
			c5.9-9.6,16.6-5.2,26.6-3.8c13.3,0.6,26.5-7.1,39.3-3.7c8.5,2.2,15.7,9.1,24.5,8.4c9.2-1,22.8,8.4,29.1,20
			c7.2-8.2,20-29.6,29.7-26c13.6,2.8,28.5,4.8,42.4,2.9c17.2-7,19.6-23.6,40.9-9.9v48.1L528.2,139.6z"/>
		<path class="st20" d="M167.6,139.6c-0.7-2.8-0.5-5.7,1.2-8.5c2.4-3.7,8.4-5.1,11.4-1.9c0.1-5,6-9,10.6-7.1
			c6.2,4.9,12.4,1,15.7-5.7c2.5-4.3,6.1-9.3,11-8.4c5.3,1,25.5-18.6,46.7,7.4c8.4,6.1,14.2,15.4,11.5,24.2L167.6,139.6L167.6,139.6z
			"/>
		<path class="st3" d="M250.1,139.6c0.8-3.1,1.7-6.2,3-9.1c3-7,6.6-12.6,14.7-16.8l-1.6,0.9c3.8-2.4,19.1-8.1,19.1-8.1
			s20.2-0.6,26.9-0.6c31.6,0,40.9,21,43.7,33.8"/>
		<path class="st5" d="M250.1,139.6c0.8-3.1,1.7-6.2,3-9.1c3-7,6.6-12.6,14.7-16.8l-1.6,0.9c3.8-2.4,19.1-8.1,19.1-8.1
			s20.2-0.6,26.9-0.6c31.6,0,40.9,21,43.7,33.8"/>
		<path class="st3" d="M259.5,139.7c0.5-2.3,1.1-4.7,1.6-7L259.5,139.7z"/>
		<path class="st5" d="M259.5,139.7c0.5-2.3,1.1-4.7,1.6-7"/>
		<path class="st21" d="M286.2,93.4c-16.3,3.9-22.2-5.9-23.1-17c-1-11.3-0.5-30.7,6.9-40c7.2-9,28.1-6.7,37.8,1.3
			c12.3,10.2,4.1,51.3,3.9,68.1c-7.5,6.7-17.5,9.2-26.5,0.7C285.8,102.4,286,97.3,286.2,93.4z"/>
		<path class="st3" d="M215.2,84.4l-3.5,10.8l7.7,10.5l8.9-1.5l7.7-7.2l-7-10l-6.2-3.4L215.2,84.4z"/>
		<path class="st3" d="M272.2,61.6c0,0-0.5,3.3-2.3,4.7c-1.4,1.1-7.7,3.7-3.9,6.1c1.6,1,9.3,0.5,9.3,0.5"/>
		<path class="st5" d="M272.2,61.6c0,0-0.5,3.3-2.3,4.7c-1.4,1.1-7.7,3.7-3.9,6.1c1.6,1,9.3,0.5,9.3,0.5"/>
		<path class="st10" d="M275.3,73c0,0-0.1,2.1-1.2,2.1s-2.7-2.1-2.7-2.1H275.3z"/>
		<path class="st3" d="M305.2,63.2c9.8-23,22,4.8,3.3,8.1L305.2,63.2z"/>
		<path class="st5" d="M305.2,63.2c9.8-23,22,4.8,3.3,8.1"/>
		<path class="st3" d="M214.4,85.6c-7.8-4.1-7.8-10.5-2.8-6.5c3.7,2.9,6.2,3,11.3,5.6"/>
		<path class="st16" d="M214.4,85.6c-7.8-4.1-7.8-10.5-2.8-6.5c3.7,2.9,6.2,3,11.3,5.6"/>
		<path class="st3" d="M212.4,89.2c-7.8-4.1-7.8-10.5-2.8-6.5c3.7,2.9,5.9,3.1,11,5.7"/>
		<path class="st16" d="M212.4,89.2c-7.8-4.1-7.8-10.5-2.8-6.5c3.7,2.9,5.9,3.1,11,5.7"/>
		<path class="st3" d="M219.6,105.7c-0.2,11.2,1.4,22.7,3.7,34h27.4c-4.9-14.2-9.8-28.6-14.7-42.7"/>
		<path class="st4" d="M223.1,139.7c-2.4-11.6-4-22.9-3.7-34c0-0.1,0.1-0.2,0.2-0.2c0.1,0,0.2,0.1,0.2,0.3
			c-0.2,11.1,1.3,22.5,3.7,34h26.9c-1.4-4.2-2.9-8.4-4.3-12.5c-3.4-9.9-6.9-20.2-10.4-30.2c0-0.1,0-0.3,0.2-0.3c0.1,0,0.3,0,0.3,0.2
			c3.5,10,7,20.2,10.4,30.2c1.4,4.2,2.9,8.4,4.3,12.6L223.1,139.7z"/>
		<path class="st22" d="M267.5,41.4c2.5,2.1,6.1,2.7,9.2,1.6c-0.2-0.9-0.5-1.8-0.7-2.8c2.1,2.8,20,6.8,17,0.4
			c2,4.9,6.7,11.4,12.6,8.9c-2.5,3.8-2.7,9-0.4,12.9c1.8-3.1,3.8-6.7,7-8.5c4.4,0.3,6.8,4.4,6.1,8.4c6.6,0,10.1-13.3,3.1-13.9
			c1.6-5.6,5.6-11.2-5.1-12.6c7.6-9.5-2.5-13.2-10.8-10.2c-4-8-17.2-11.5-21-1.7c-6,1.6-13.6-1.7-19.2,2c-2.3,1.8-3,6-0.4,7.4
			c-7-0.2-4.5,9.9,0.7,11.3C265.5,44.7,265.5,44.6,267.5,41.4z"/>
		<path class="st22" d="M286.2,93.4l10.5-3l-10.9,10L286.2,93.4z"/>
		<path class="st5" d="M281.8,107.8c4.7,13.1,30.2,10.9,32.5-1.9"/>
		<path class="st19" d="M210.6,92c-1.8-7.4,10.5-1.5,7.7,1.7C216.6,95.8,212.2,93.1,210.6,92z"/>
		<path class="st3" d="M219.6,105.7c-2-1.3-3.9-2.6-5.7-4.3c-1.7-1.6-3.2-3.6-4-5.8c-0.3-1-0.5-2.1,0-2.9c0.8-1.3,2.6-1.4,4-0.9
			c1.1,0.4,2,1.1,2.8,1.9c0.4,0.5,0.8,1,0.8,1.7c0.1,0.6-0.3,1.3-0.9,1.5c-0.7,0.2-1.4-0.3-2-0.8c-0.5-0.5-1-0.9-1.5-1.4"/>
		<path class="st16" d="M219.6,105.7c-2-1.3-3.9-2.6-5.7-4.3c-1.7-1.6-3.2-3.6-4-5.8c-0.3-1-0.5-2.1,0-2.9c0.8-1.3,2.6-1.4,4-0.9
			c1.1,0.4,2,1.1,2.8,1.9c0.4,0.5,0.8,1,0.8,1.7c0.1,0.6-0.3,1.3-0.9,1.5c-0.7,0.2-1.4-0.3-2-0.8c-0.5-0.5-1-0.9-1.5-1.4"/>
		<path class="st3" d="M236.1,97c1.9-15-6.7-11.1-15.6-20.7c-2.2-0.7-2.6,3.9-1,5.9c2.2,2.7,5.3,4.9,8.1,6.7
			c-2.7,2.2-6.2,5.6-3.1,8.5"/>
		<path class="st16" d="M236.1,97c1.9-15-6.7-11.1-15.6-20.7c-2.2-0.7-2.6,3.9-1,5.9c2.2,2.7,5.3,4.9,8.1,6.7
			c-2.7,2.2-6.2,5.6-3.1,8.5"/>
		<path class="st23" d="M150.9,49.4c9.8,1.8,23.7,6.6,30.4,9.8c14,7.6,10.7,26.2-1.5,33.6c-10.1,6.5-19.8-6-13.1-15.3
			c11.3-13.3,26.2-17.8,45.5-3.6"/>
		<path class="st24" d="M138.2,59.8L100.9,45l43,0.6L138.2,59.8z"/>
		<path class="st24" d="M138.2,59.8L100.9,45l44.3,6.3L138.2,59.8z"/>
		<path class="st25" d="M146.1,50.3L100.9,45l49.9,16.4L146.1,50.3z"/>
		<path class="st25" d="M143.9,45.6l-2.8-8.2L100.9,45L143.9,45.6z"/>
		<path class="st3" d="M328.2,133.2c0.1,2.2,0.1,4.3,0,6.5V133.2z"/>
		<path class="st5" d="M328.2,133.2c0.1,2.2,0.1,4.3,0,6.5"/>
		<path class="st3" d="M775.8,139.7l0.6-14.6c0,0,21.6-28.7,16.4-39.7c-6.6-14.2-20.1-26.1-44.5-32.5c-2.2,10.9-19.4,10.4-19.4,6.8
			c0,0,1.8-1.7,2-5.6c0,0-9,0.5-25.4,5.9c-14.4,4.7-44.2,4.6-62.3-8.2c-0.3-0.2,4.7,19.8,5.1,20.1c20.3,14.2,44.7,17.9,60.4,9
			c0.2-0.1-1.4,30.4-2.8,58.8"/>
		<path class="st7" d="M775.8,139.7l0.6-14.6c0,0,21.6-28.7,16.4-39.7c-6.6-14.2-20.1-26.1-44.5-32.5c-2.2,10.9-19.4,10.4-19.4,6.8
			c0,0,1.8-1.7,2-5.6c0,0-9,0.5-25.4,5.9c-14.4,4.7-44.2,4.6-62.3-8.2c-0.3-0.2,4.7,19.8,5.1,20.1c20.3,14.2,44.7,17.9,60.4,9
			c0.2-0.1-1.4,30.4-2.8,58.8"/>
		<path class="st4" d="M705.8,17.6c-3.5-7.2,39.3-10.7,54.9-0.8c6.7,4.3,1.1,8.1-6.1,9.2C745.8,27.5,711.2,29.2,705.8,17.6z"/>
		<path class="st21" d="M729,59.7c0.1,3.5,18.6,8.5,19.6-9.2c0.2-4.6,0.8-13.9,0.9-14.6c2.2-0.3,6.3-1.3,5.1-5.1
			c-1-3.5-3.6-1.6-5.3,0l-0.9-8.2c0,0-6.7-1.6-16.3-3.2c-2.2-0.4-7.5-0.8-8.5,2.4c-8.6,27.3,0.7,28.1,7.4,27.8
			C730.8,53.1,731,56.9,729,59.7z"/>
		<path class="st5" d="M776.3,104.9l-2.4-11"/>
		<path class="st3" d="M766.2,80.6c20.7,20.4-13,47.4-23.5,28.7l-11,11.9c17.7,36.3,76.8,2.8,61.7-34.8"/>
		<path class="st7" d="M766.2,80.6c20.7,20.4-13,47.4-23.5,28.7l-11,11.9c17.7,36.3,76.8,2.8,61.7-34.8"/>
		<path class="st0" d="M728.8,64.4c0,0-1.7,42.2-3.3,75.2h3C732,96.1,728.8,64.4,728.8,64.4z"/>
		<path class="st7" d="M728.8,59.7l-3.3,80"/>
		<path class="st7" d="M744.5,134.3l-0.3,5.3"/>
		<path class="st7" d="M748.5,52.9l-3,60"/>
		<path class="st16" d="M728.8,60.2l3.2,10.4l4.9-8.7l4.7,8.7l6.6-16.5"/>
		<path class="st21" d="M727.8,33c16.8,12.9,10.1-5.1,18-3.4c-0.1-1.2,0-2.9,1.3-3.4c-1.1-1.3-0.2-3.5,1.5-3.7
			c0.2,0.8-0.5,1.7-0.2,2.5c1.1,1.3,1.4,2.8,1.2,4.4c1.5,1.3,0.9,3.3-0.2,4.8c2.4,1.4,1,3.1-0.2,4.6c1.1,1.4,0.6,3.9-1.2,4.4
			c0.3,1.5-1.6,3.1-3.2,3.4c-0.1,1.7-2,3.1-3.7,2.7c-0.3,2-2.2,3.6-4.3,3.5c-1.1,1.6-4.2,2.2-4.5-0.1c-2.3,1.8-6.1,2.3-6-1.7
			c-1.8-0.3-4.4-1.2-4.1-3.5c-2.3,0-3.7-2.9-2.2-4.7c-2.4-1.3-2-4.3-0.5-6c-0.6-1.4,0.3-5.7,1.7-6.1C721.3,30.6,718,40.6,727.8,33z"
			/>
		<path class="st3" d="M727.5,23.7c-3.8,4.2-5.1,10.6-1.9,12.4c1.8,1,3.8-3.1,3.8-3.1"/>
		<path class="st5" d="M727.5,23.7c-3.8,4.2-5.1,10.6-1.9,12.4c1.8,1,3.8-3.1,3.8-3.1"/>
		<path class="st4" d="M726,11.5c0.2-1.9,1.7-3.6,3.6-4.1c1.2-0.3,2.6,0,3.7-0.5c1.5-0.6,2.3-2.3,3.7-3.1c1.5-0.8,3.3-0.5,4.9-0.1
			c2.8,0.6,5.8,1.4,7.4,3.7c1.4,2.1,1.2,4.7,1,7.2C742,15.3,733.8,14.4,726,11.5z"/>
		<path class="st26" d="M701.8,139.7l24.5-24.5l3.2,3.2l-21.2,21.3H701.8z"/>
		<path class="st27" d="M731.5,121.3c-2.8-1.8-7.7-7-5.2-10.4c0.9-1-0.8-4.4,2.3-5.5c2.5-0.9,1-3.6,3.5-4.2c2.6-0.7,1.7-1.6,3.2-2.4
			c2-0.8,3,2.1,3.8,3.3c6.1-3.5,4.6,5.5,3.7,7.1C742.8,109.1,731.5,121.3,731.5,121.3z"/>
		<path class="st26" d="M737.2,101.9c14.9-13.3,0.6-28.9-9.2-12.6c-1.4,2.3-4.6-0.1-3.8-1.4c13.2-25.5,37.6,1.2,16.3,17
			C739.5,104.8,737.5,102.9,737.2,101.9z"/>
		<path class="st4" d="M736.2,61.4l-5-1.9V66l5-2.7l5.2,2.7l1.2-8.3L736.2,61.4z"/>
		<path class="st5" d="M795.6,102.2c-11.3-4.4-15.7,11.4-6,16"/>
		<path class="st5" d="M677.5,84.4c1.4-9.5,15.2-9.5,16.2,0.9"/>
		<path class="st4" d="M730.8,55.5c0.6-0.2,1.1-0.6,1.6-1c0.8,0.6,1.8,1,2.8,0.8s1.8-1,1.8-2c1.2,0.4,2.6-0.3,3-1.5
			c-0.9,0.6-2,0.9-3.1,0.9c0,0.4-0.4,0.8-0.7,1c-0.4,0.2-0.8,0.3-1.2,0.4c-0.6,0.1-0.8,0.1-1.4-0.1c-0.6-0.2-1.2-0.8-1.1-1.4
			c-0.3,0.3-1.1,0.7-1.5,0.9C730.8,53.8,730.8,55.4,730.8,55.5z"/>
		<path class="st3" d="M606.5,139.7c1.4-41.9-0.7-66.5,12.9-80.2L606.5,139.7z"/>
		<path class="st3" d="M625.8,54.2c0.1-0.2,7.1-5.8,10-5.6c4.1,0.4,12.2,7.2,12.2,7.2c0.7,30.9,3.5,58.2,9.1,83.8"/>
		<path class="st28" d="M628.3,49.9c-8.1-1.4-22.7,5-20.5,65C607.8,114.9,640.3,51.9,628.3,49.9z"/>
		<path class="st21" d="M615.8,108.6c-10.7,1.1-21.1,3.6-31.5,6.2c-1.5,0.4-3.1,0.8-4,2c-1.3,1.7-0.4,4.1,1.2,5.4
			c1.7,1.2,3.9,1.6,6.1,1.8c9.8,1,19.9,0.7,29.7-0.8c3.1-0.5,6.7-1.5,7.8-4.3c0.4-1,0.4-2.2,0.2-3.3
			C624.3,111.5,620.2,108.2,615.8,108.6z"/>
		<path class="st3" d="M625.8,54.2c0.1-0.2,7.1-5.8,10-5.6c4.1,0.4,12.2,7.2,12.2,7.2c0.7,30.9,3.5,58.2,9.1,83.8h-50.6
			c1.4-41.9-0.7-66.5,12.9-80.2"/>
		<path class="st4" d="M617,5.4c8.4-3.6,26.7-1.2,30.4,14.5c2.9,22.6,13.5,38.7-16.7,35c-2.8-2.4-5.7-15.7-21.3-29.1
			C609.3,25.8,606.5,9.9,617,5.4z"/>
		<path class="st3" d="M606.5,139.7c1.4-41.9-0.7-66.5,12.9-80.2L606.5,139.7z"/>
		<path class="st5" d="M606.5,139.7c1.4-41.9-0.7-66.5,12.9-80.2"/>
		<path class="st3" d="M625.8,54.2c0.1-0.2,7.1-5.8,10-5.6c4.1,0.4,12.2,7.2,12.2,7.2c0.7,30.9,3.5,58.2,9.1,83.8"/>
		<path class="st5" d="M625.8,54.2c0.1-0.2,7.1-5.8,10-5.6c4.1,0.4,12.2,7.2,12.2,7.2c0.7,30.9,3.5,58.2,9.1,83.8"/>
		<path class="st29" d="M610,21.2c-1.6,15.3-3.1,31.6,14.4,25.2c2.8,8.5-7.4,23.2-7.4,23.2s27.6,14.6,18.2-27
			c-1.4-6.1-0.4-6-0.1-6.2c4.4-3.4,0.6-10.4-3.5-4.9c-0.7,0.9-3.6,3.1-3.6,3.1c0-0.6,1.2-1.1,1.6-6.9C630.2,17.3,610.3,18,610,21.2z
			"/>
		<path class="st30" d="M611.5,25.4l-1,6.6l2.6,0.3"/>
		<path class="st31" d="M624.5,46.4l3.2-1.3c0,0-1.4,3.1-2.2,4.2C625.5,49.3,624.5,46.5,624.5,46.4z"/>
		<path class="st3" d="M647.5,55.5c10.4,8.9,15.3,15,22.5,52.2c2.3,12,3.5,22.9,3,31.9l-16,0.1c-0.6-2.4-1.1-4.7-1.5-6.9
			c-3.7-19.1-5.6-32.9-7.7-52.2"/>
		<path class="st3" d="M657,139.6c-0.6-2.3-1.1-4.6-1.5-6.8c-3.7-19.1-5.6-32.9-7.7-52.2"/>
		<path class="st5" d="M657,139.6c-0.6-2.3-1.1-4.6-1.5-6.8c-3.7-19.1-5.6-32.9-7.7-52.2"/>
		<path class="st3" d="M647.5,55.5c10.4,8.9,15.3,15,22.5,52.2c2.4,12,3.5,23,3,32"/>
		<path class="st5" d="M647.5,55.5c10.4,8.9,15.3,15,22.5,52.2c2.4,12,3.5,23,3,32"/>
		<path class="st10" d="M613,32.2l-0.6,2l-0.6-2H613z"/>
		<path class="st3" d="M615.2,20.4c-0.1-1.5-0.2-2.9-0.3-4.4c-0.7,1.4-1.2,2.9-1.3,4.4C614.2,20.4,614.8,20.4,615.2,20.4z"/>
		<path class="st32" d="M612.3,122.1l-28.1-12.2c-0.1-0.1-0.3-0.1-0.4-0.1l-19.4,1.7c-0.8,0.1-1.1,1.1-0.4,1.5l21.2,14.2
			c0.2,0.1,0.4,0.2,0.6,0.1l26.4-3.7C613,123.6,613,122.4,612.3,122.1z"/>
		<path class="st3" d="M604.8,121.3l-21.2-9.4c-0.1,0-0.2-0.1-0.3,0l-14.7,1.1c-0.5,0-0.7,0.7-0.3,1l15.4,11.2
			c0.1,0.1,0.3,0.1,0.4,0.1l20.4-2.9C605.2,122.2,605.2,121.5,604.8,121.3z"/>
		<path class="st32" d="M576.8,94.3L556,85.4c-0.7-0.3-1.4,0.3-1.2,1.1l7,24.9c0.1,0.2,0.2,0.4,0.4,0.5l21.3,14.3
			c0.7,0.5,1.6-0.2,1.4-1l-7.5-30.3C577.3,94.6,577.2,94.4,576.8,94.3z"/>
		<path class="st3" d="M569.5,112.6c-0.3-0.9-0.8-1.7-1.5-2.3c-1.6-1-0.3,5.7,0.5,8.4c0.3,0.9,1.6,0.2,2.4,0"/>
		<path class="st5" d="M569.5,112.6c-0.3-0.9-0.8-1.7-1.5-2.3c-1.6-1-0.3,5.7,0.5,8.4c0.3,0.9,1.6,0.2,2.4,0"/>
		<path class="st3" d="M571.5,114.1c0-1.3-0.8-3.1-2-3.5c-1.1-0.4-0.1,6.5,0.7,8.9c0.3,0.7,1.3,0.6,1.9,0.3"/>
		<path class="st5" d="M571.5,114.1c0-1.3-0.8-3.1-2-3.5c-1.1-0.4-0.1,6.5,0.7,8.9c0.3,0.7,1.3,0.6,1.9,0.3"/>
		<path class="st3" d="M573.5,114.6c0-1-1-2.4-1.7-2.6c-1.4-0.5-0.1,5.4,0.3,7.9c0,0.3,0.1,0.5,0.2,0.7c0.4,0.6,1.2,0.6,2,0.5"/>
		<path class="st5" d="M573.5,114.6c0-1-1-2.4-1.7-2.6c-1.4-0.5-0.1,5.4,0.3,7.9c0,0.3,0.1,0.5,0.2,0.7c0.4,0.6,1.2,0.6,2,0.5"/>
		<path class="st3" d="M576.5,121.6c-0.4-2.6-0.2-7-2.7-8.2c-1.3-0.6-0.1,6.9,1,9.4c1.3,0.6,3,0.2,4.4,0.4"/>
		<path class="st5" d="M576.5,121.6c-0.4-2.6-0.2-7-2.7-8.2c-1.3-0.6-0.1,6.9,1,9.4c1.3,0.6,3,0.2,4.4,0.4"/>
		<path class="st3" d="M649.8,96.5c5.3,2.1,14.3,0.2,16.9-5.2L649.8,96.5z"/>
		<path class="st5" d="M649.8,96.5c5.3,2.1,14.3,0.2,16.9-5.2"/>
		<path class="st3" d="M650.5,99.8c5.3,2.1,14.3,0.2,16.9-5.2L650.5,99.8z"/>
		<path class="st5" d="M650.5,99.8c5.3,2.1,14.3,0.2,16.9-5.2"/>
		<path class="st4" d="M403.2,0c-15.4,0.5-27.3,15-23.1,30.4c7.4,27-26.1,25-7.9,48c-4.4,12.5,17.5,23.2,30.3,23
			c8.2,0.7,16-13.4,21.3-18.8c27.6-27.6,7.9-22.2,0.1-31.4c-1.9-6.6,3-13.9,3.6-20.7C428,17.2,420-0.5,403.2,0z"/>
		<path class="st28" d="M401.3,59.5c-24,5.5-55.4,54.6-33.3,74.2C376,140.8,417.3,55.9,401.3,59.5z"/>
		<path class="st3" d="M372.8,139.6c0.9-32.4,3-53.7,16.4-67.1L372.8,139.6z"/>
		<path class="st5" d="M372.8,139.6c0.9-32.4,3-53.7,16.4-67.1"/>
		<path class="st3" d="M458,139.7c-0.1-0.7-0.3-1.5-0.4-2.2c-9.8-50.1-16.4-58.3-30.4-70.4l0.5,0.4c0,0-11.8-9.1-17.3-9.7"/>
		<path class="st5" d="M458,139.7c-0.1-0.7-0.3-1.5-0.4-2.2c-9.8-50.1-16.4-58.3-30.4-70.4l0.5,0.4c0,0-11.8-9.1-17.3-9.7"/>
		<path class="st3" d="M373.2,139.6l0.1-5.9l12.2-44.8L403,58.4l7.5-0.2l36.2,50.9c0,0,10,22.8,10.9,30.6"/>
		<path class="st3" d="M399,71.8c-9.5,17.6-12.8,37.4-13.7,57.4L399,71.8z"/>
		<path class="st5" d="M399,71.8c-9.5,17.6-12.8,37.4-13.7,57.4"/>
		<path class="st21" d="M420.2,93.1L403,90.7l-1,10.8l17,2.5L420.2,93.1z"/>
		<path class="st4" d="M413.8,89.2l-0.6,5.1l-3.6-0.3l0.8-5.4L413.8,89.2z"/>
		<path class="st3" d="M427.8,101c1.5,14.4,3,26.3,4.9,38.7L427.8,101z"/>
		<path class="st5" d="M427.8,101c1.5,14.4,3,26.3,4.9,38.7"/>
		<path class="st21" d="M421.3,22.7c-0.2-0.4-0.4-0.9-0.9-1.1c-0.8-0.3-1.6,0.4-2,1.2c-0.2,0.4-0.4,0.9-0.6,1.3
			C416.2,16.3,411,7.5,403,8.7c-9.2,1.6-13.2,9.9-14.5,18.5c-0.9-1.3-2.1-2.6-3.6-2.4c-1.2,0.2-2.1,1.4-2.3,2.7
			c-0.2,1.3,0.3,2.5,0.8,3.7c0.9,2,2,3.8,3.4,5.5c0.4,0.4,0.8,0.8,1.2,1.2c-0.3,5.6,0,11.4,9.3,15.4l0.4,8.4
			c1.4,5.5,12.9,6.5,12.6-1.3c-0.1-2.4-0.5-7.6-0.5-7.6l-0.1-0.1c9.2-4.5,10-14,9.4-19.2c0.1,0,0.3-0.1,0.4-0.2
			c1.3-0.8,2-2.3,2.3-3.8C422.3,27.3,422.2,24.8,421.3,22.7z"/>
		<path class="st4" d="M414.8,15.7c-10.6-5.7-17.1,6.5-22,10.4C378.8,37.3,397.8-10.1,414.8,15.7z"/>
		<path class="st4" d="M419,22.1c-0.9,2.3-1.3,4.8-1,7.3c-1.4-1.1-1.8-3-1.8-4.7c0-1.2,0.3-2.6,1.2-3.4c0.1-0.1,0.3-0.3,0.5-0.2
			c0.1,0,0.2,0.1,0.3,0.2C418.5,21.5,418.8,22,419,22.1z"/>
		<path class="st16" d="M399.2,26.1v12.5l4.3-0.5"/>
		<path class="st5" d="M397.8,58.3c2.7,3.9,10.7,4.5,12.8-0.4"/>
		<path class="st10" d="M398.8,53.4c3.7,2.4,6.8,1.8,9.4,0C403.8,56.2,403,56.1,398.8,53.4z"/>
		<path class="st33" d="M386,31.3l-3.1,0.1c4.8,46.9,37.1,53.2,41-4.7l-3.5,0.1"/>
		<path class="st22" d="M403.5,38.1l-2,0.9l-2.3-0.4L403.5,38.1z"/>
		<path class="st34" d="M404,69c1.4,12.3-21.1,20.6-35,9.3c-11.7-12-0.5-28.2-20.9-34.7"/>
		<path class="st3" d="M376,139.7l-3.8-39.5h34.2l-0.7,39.5"/>
		<path class="st7" d="M376,139.7l-3.8-39.5h34.2l-0.7,39.5"/>
		<path class="st3" d="M369.8,115.4c10.7-0.8,21.5,4.9,30.6,0.4c0-0.1,0.1,13.1-2,17.9c-8.1,4-24.1,4.2-30.2,0.2"/>
		<path class="st16" d="M369.8,115.4c10.7-0.8,21.5,4.9,30.6,0.4c0-0.1,0.1,13.1-2,17.9c-8.1,4-24.1,4.2-30.2,0.2"/>
		<path class="st35" d="M346.2,46.4c2.2,0,4-1.8,4-4s-1.8-4-4-4s-4,1.8-4,4C342.2,44.6,344,46.4,346.2,46.4z"/>
		<path class="st3" d="M406.5,117.1c4.7-0.3,3-3.9,2.1-3.6c-2,0.6-5.1,0.2-6,0.3c-4.3,0.2-8.1,2.7-8.8,5.6
			c-1.8,7.2-0.6,11.3,0.2,15.4c0,0,0,0,0.1,0"/>
		<path class="st5" d="M406.5,117.1c4.7-0.3,3-3.9,2.1-3.6c-2,0.6-5.1,0.2-6,0.3c-4.3,0.2-8.1,2.7-8.8,5.6
			c-1.8,7.2-0.6,11.3,0.2,15.4c0,0,0,0,0.1,0"/>
		<path class="st3" d="M394,134.7c2.5,2,15.6,3.6,14.2-1c-1-3.3,2.2-3.1-0.3-6c-1.2-1.4,2-2.9,0.2-4.8c-1-1,1.1-2.6,0.8-4
			c-0.7-3.1-5.2-1.3-7.5-0.9"/>
		<path class="st5" d="M394,134.7c2.5,2,15.6,3.6,14.2-1c-1-3.3,2.2-3.1-0.3-6c-1.2-1.4,2-2.9,0.2-4.8c-1-1,1.1-2.6,0.8-4
			c-0.7-3.1-5.2-1.3-7.5-0.9"/>
	</g>
</g>
</svg>
